<?xml version="1.0" encoding="utf-8"?><!-- Uploaded to: SVG Repo, www.svgrepo.com, Generator: SVG Repo Mixer Tools -->
<svg fill="#000000" width="800px" height="800px" viewBox="0 0 1024 1024" xmlns="http://www.w3.org/2000/svg"><path d="M655.36 186.88c0-80.593-65.327-145.92-145.92-145.92s-145.92 65.327-145.92 145.92c0 80.593 65.327 145.92 145.92 145.92s145.92-65.327 145.92-145.92zm40.96 0c0 103.215-83.665 186.88-186.88 186.88s-186.88-83.665-186.88-186.88C322.56 83.665 406.225 0 509.44 0s186.88 83.665 186.88 186.88z"/><path d="M691.2 980.992c16.849 0 30.72-13.871 30.72-30.72V559.104c0-101.329-82.991-184.32-184.32-184.32h-56.32c-101.329 0-184.32 82.991-184.32 184.32v391.168c0 16.849 13.871 30.72 30.72 30.72H691.2zm0 40.96H327.68c-39.471 0-71.68-32.209-71.68-71.68V559.104c0-123.951 101.329-225.28 225.28-225.28h56.32c123.951 0 225.28 101.329 225.28 225.28v391.168c0 39.471-32.209 71.68-71.68 71.68z"/><path d="M516.685 489.299l38.66-38.66c4.001-4.005 4.001-10.493.006-14.491l-38.66-38.66c-4.005-4.001-10.493-4.001-14.491-.006l-38.666 38.666a10.237 10.237 0 000 14.485l38.666 38.666a10.237 10.237 0 0014.485 0zm-82.115-9.703c-19.999-19.999-19.999-52.412 0-72.411l38.672-38.672c19.998-19.981 52.401-19.981 72.405.006l38.672 38.672c19.981 19.998 19.981 52.401-.006 72.405l-38.666 38.666c-19.999 19.999-52.412 19.999-72.411 0l-38.666-38.666z"/><path d="M438.688 759.091a1.445 1.445 0 00-.069.347l.042-.416c.287.139.14-.231.027.069zm142.061-.838c-.676.446-.68.456-.654.538.029.093-29.351-285.18-29.351-285.18-1.161-11.251 7.019-21.313 18.27-22.473s21.313 7.019 22.473 18.27l29.489 285.859c1.297 12.444-4.566 26.703-14.225 34.634l-78.849 64.822c-12.055 9.923-30.26 9.684-42.079-.544l-74.294-64.422c-9.279-8.049-14.893-22.192-13.665-34.406l29.368-293.478c1.126-11.255 11.163-19.465 22.417-18.339s19.465 11.163 18.339 22.417L438.66 759.023c-.07-.034 68.668 59.589 68.668 59.589l73.42-60.358z"/></svg>